<svg width="102" height="102" viewBox="0 0 102 102" fill="none" xmlns="http://www.w3.org/2000/svg">
<circle cx="51" cy="51" r="48.5" fill="#3CA0D0" stroke="white" stroke-width="5"/>
<path d="M79.9062 58.8906L71.7812 56.8594L57.5625 51L72.1719 44.9844L79.9062 43.0312C80.6354 45.6875 81 48.3438 81 51C81 53.6042 80.6354 56.2344 79.9062 58.8906ZM55.6094 46.3906L61.7031 31.7812L65.8438 24.9062C70.5833 27.6146 74.3073 31.3646 77.0156 36.1562L69.9062 40.4531L55.6094 46.3906ZM51 44.4375L44.9844 29.9062L43.1094 22.0938C45.7656 21.3646 48.3958 21 51 21C53.6042 21 56.2344 21.3646 58.8906 22.0938L56.9375 30.2188L51 44.4375ZM32.1719 40.4531L24.9844 36.1562C27.6927 31.3646 31.4167 27.6146 36.1562 24.9062L40.375 31.7812L46.3906 46.3906L32.1719 40.4531ZM44.5156 51L30.2188 56.8594L22.0938 58.8906C21.3646 56.2344 21 53.6042 21 51C21 48.3958 21.3646 45.7396 22.0938 43.0312L29.9062 44.9844L44.5156 51ZM46.3906 55.6094L40.5312 69.8281L36.1562 77.0156C31.4167 74.3073 27.6927 70.5833 24.9844 65.8438L31.7812 61.625L46.3906 55.6094ZM51 57.5625L56.9375 71.7812L58.8906 79.9062C56.2344 80.6354 53.6042 81 51 81C48.3958 81 45.7656 80.6354 43.1094 79.9062L44.9844 72.0938L51 57.5625ZM70.2188 61.625L77.0938 65.8438C74.3854 70.5833 70.6615 74.3073 65.9219 77.0156L61.5469 69.8281L55.6094 55.6094L70.2188 61.625Z" fill="white"/>
</svg>
