<svg width="102" height="102" viewBox="0 0 102 102" fill="none" xmlns="http://www.w3.org/2000/svg">
<circle cx="51" cy="51" r="48.5" fill="#3CA0D0" stroke="white" stroke-width="5"/>
<path d="M60.3725 21C48.9733 21 39.7488 24.2998 39.7488 28.4995V35.9991C28.4995 36.374 21 39.5238 21 43.4986V65.9972C21 70.0844 30.2244 73.4967 41.6237 73.4967H41.8749C44.6198 73.4967 47.3121 73.2905 49.9482 72.8968C52.5655 77.7902 57.8002 80.9888 63.7848 80.9888C67.3812 80.9885 70.8783 79.8083 73.7394 77.6293C76.6005 75.4503 78.6677 72.3927 79.6238 68.9258C80.4075 68.1796 80.9138 67.2684 81 66.2372V28.4995C81 24.2998 71.7756 21 60.3763 21H60.3725ZM41.6237 39.7488C50.9981 39.7488 58.4977 41.4362 58.4977 43.4986C58.4977 45.561 50.9981 47.2484 41.6237 47.2484C32.2493 47.2484 24.7498 45.561 24.7498 43.4986C24.7498 41.4362 32.2493 39.7488 41.6237 39.7488ZM41.6237 69.747C31.4618 69.747 25.6872 67.0846 24.7498 65.9972V62.9974C30.1083 65.2464 35.9015 66.27 41.7062 65.9934C43.6111 65.9897 45.5685 65.8809 47.4958 65.6747C47.3346 67.0659 47.5783 68.3445 47.9571 69.5632C46.2622 69.642 44.331 69.7545 42.3774 69.7545L41.5862 69.747H41.6237ZM47.5108 61.9099C45.7597 62.1237 43.7311 62.2474 41.6762 62.2474H41.6237C31.4656 62.2474 25.691 59.5851 24.7535 58.4977V55.3479C30.0955 57.6467 35.8837 58.7228 41.695 58.4977C44.074 58.4935 46.4502 58.3332 48.8083 58.0177C48.0696 59.1651 47.7171 60.47 47.5258 61.8237L47.5108 61.9099ZM41.6237 54.7479C31.4618 54.7479 25.6872 52.0856 24.7498 50.9981V47.6233C30.0918 49.9222 35.8799 50.9983 41.6912 50.7731C47.55 50.9687 53.3789 49.8595 58.7564 47.5258L58.5014 48.8983C55.6866 49.845 53.1797 51.5343 51.2456 53.788C48.4258 54.4067 45.2047 54.7479 41.9049 54.7479H41.6162H41.6237ZM63.7848 77.2465C60.3936 77.2465 57.1412 75.8993 54.7433 73.5014C52.3453 71.1034 50.9981 67.851 50.9981 64.4598C50.9981 61.0685 52.3453 57.8162 54.7433 55.4182C57.1412 53.0203 60.3936 51.6731 63.7848 51.6731C67.1761 51.6731 70.4284 53.0203 72.8264 55.4182C75.2244 57.8162 76.5715 61.0685 76.5715 64.4598C76.5715 67.851 75.2244 71.1034 72.8264 73.5014C70.4284 75.8993 67.1761 77.2465 63.7848 77.2465ZM77.2465 50.9981C76.5903 51.6243 75.8028 52.1231 74.9329 52.4455C73.853 51.5306 72.683 50.7206 71.4156 50.0682C73.4861 49.5319 75.4898 48.7646 77.389 47.7808L77.2465 50.9981ZM77.2465 43.4986C76.3465 44.661 71.2094 47.0234 62.2474 47.2484V43.4986H62.2887C67.5233 43.5064 72.7011 42.4142 77.4865 40.2925L77.2465 43.4986ZM77.2465 35.9991C76.309 37.2365 70.5344 39.7488 60.3725 39.7488H59.5101C54.6735 37.268 49.313 35.9822 43.8773 35.9991H43.4986V32.6243C48.8406 34.9231 54.6288 35.9993 60.44 35.7741C66.2988 35.9696 72.1278 34.8604 77.5052 32.5268L77.2502 35.9991H77.2465ZM60.3725 32.2493C50.9981 32.2493 43.4986 30.5619 43.4986 28.4995C43.4986 26.4372 50.9981 24.7498 60.3725 24.7498C69.747 24.7498 77.2465 26.4372 77.2465 28.4995C77.2465 30.5619 69.747 32.2493 60.3725 32.2493Z" fill="white"/>
</svg>
