<svg width="102" height="102" viewBox="0 0 102 102" fill="none" xmlns="http://www.w3.org/2000/svg">
<circle cx="51" cy="51" r="48.5" fill="#3CA0D0" stroke="white" stroke-width="5"/>
<path d="M67.3636 68.3351C69.6273 68.3351 71.4545 66.5176 71.4545 64.266C71.4545 62.0144 69.6273 60.1968 67.3636 60.1968C65.1 60.1968 63.2727 62.0144 63.2727 64.266C63.2727 66.5176 65.1 68.3351 67.3636 68.3351ZM71.4545 43.9202H64.6364V50.7021H76.8L71.4545 43.9202ZM34.6364 68.3351C36.9 68.3351 38.7273 66.5176 38.7273 64.266C38.7273 62.0144 36.9 60.1968 34.6364 60.1968C32.3727 60.1968 30.5455 62.0144 30.5455 64.266C30.5455 66.5176 32.3727 68.3351 34.6364 68.3351ZM72.8182 39.8511L81 50.7021V64.266H75.5455C75.5455 68.7691 71.8909 72.4043 67.3636 72.4043C62.8364 72.4043 59.1818 68.7691 59.1818 64.266H42.8182C42.8182 68.7691 39.1636 72.4043 34.6364 72.4043C30.1091 72.4043 26.4545 68.7691 26.4545 64.266H21V34.4255C21 31.4144 23.4273 29 26.4545 29H64.6364V39.8511H72.8182ZM26.4545 34.4255V58.8404H28.5273C30.0273 57.1856 32.2091 56.1277 34.6364 56.1277C37.0636 56.1277 39.2455 57.1856 40.7455 58.8404H59.1818V34.4255H26.4545ZM45.5455 37.1383L55.0909 46.633L45.5455 56.1277V49.3457H31.9091V43.9202H45.5455V37.1383Z" fill="white"/>
</svg>
