<svg width="102" height="102" viewBox="0 0 102 102" fill="none" xmlns="http://www.w3.org/2000/svg">
<circle cx="51" cy="51" r="48.5" fill="#3CA0D0" stroke="white" stroke-width="5"/>
<path d="M51.5 25L29 32.5V55C29 67.4277 39.0723 77.5 51.5 77.5C63.9277 77.5 74 67.4277 74 55V32.5L51.5 25ZM69.7812 55C69.7812 65.0957 61.5957 73.2812 51.5 73.2812C41.4043 73.2812 33.2188 65.0957 33.2188 55V35.6641L51.5 29.2188L69.7812 35.6641V55Z" fill="white"/>
<path d="M44.1724 50.8384C43.9769 50.642 43.7445 50.4861 43.4886 50.3798C43.2327 50.2735 42.9583 50.2187 42.6812 50.2187C42.4041 50.2187 42.1297 50.2735 41.8738 50.3798C41.6179 50.4861 41.3855 50.642 41.19 50.8384C40.9936 51.0339 40.8377 51.2663 40.7314 51.5222C40.6251 51.7781 40.5703 52.0525 40.5703 52.3296C40.5703 52.6067 40.6251 52.8811 40.7314 53.137C40.8377 53.3929 40.9936 53.6253 41.19 53.8208L48.772 61.4028L48.8951 61.5259C49.08 61.7112 49.2996 61.8581 49.5415 61.9584C49.7833 62.0587 50.0425 62.1104 50.3042 62.1104C50.566 62.1104 50.8252 62.0587 51.067 61.9584C51.3088 61.8581 51.5285 61.7112 51.7134 61.5259L64.8091 48.4302C64.9944 48.2452 65.1414 48.0256 65.2417 47.7838C65.342 47.542 65.3936 47.2828 65.3936 47.021C65.3936 46.7592 65.342 46.5 65.2417 46.2582C65.1414 46.0164 64.9944 45.7967 64.8091 45.6118L64.6451 45.4478C64.4601 45.2625 64.2405 45.1155 63.9987 45.0152C63.7569 44.9149 63.4977 44.8633 63.2359 44.8633C62.9741 44.8633 62.7149 44.9149 62.4731 45.0152C62.2313 45.1155 62.0116 45.2625 61.8267 45.4478L50.3013 56.9673L44.1724 50.8384Z" fill="white"/>
</svg>
