<svg width="102" height="102" viewBox="0 0 102 102" fill="none" xmlns="http://www.w3.org/2000/svg">
<circle cx="51" cy="51" r="48.5" fill="#3CA0D0" stroke="white" stroke-width="5"/>
<path d="M73.1101 52.9331C73.113 51.4959 72.7126 50.0868 71.9545 48.8659C71.1964 47.645 70.1109 46.6613 68.8215 46.0266C67.532 45.392 66.0904 45.1318 64.6605 45.2758C63.2306 45.4197 61.8697 45.962 60.7327 46.8409C59.5956 47.7198 58.728 48.9001 58.2284 50.2476C57.7288 51.5951 57.6173 53.0558 57.9066 54.4635C58.1959 55.8712 58.8744 57.1695 59.8649 58.2108C60.8554 59.2521 62.1181 59.9946 63.5097 60.3539V62.5335C63.5097 65.0865 62.4954 67.535 60.6902 69.3403C58.8849 71.1456 56.4364 72.1598 53.8833 72.1598C51.3302 72.1598 48.8817 71.1456 47.0764 69.3403C45.2711 67.535 44.2569 65.0865 44.2569 62.5335C44.3535 60.2415 44.9137 57.993 45.9037 55.9237C46.8938 53.8544 48.2931 52.0073 50.0172 50.494H49.7577C51.5926 49.297 53.1057 47.6679 54.1643 45.7498C55.2229 43.8317 55.7946 41.6831 55.8293 39.4925V31.7602C55.8293 30.2325 55.2224 28.7674 54.1422 27.6871C53.0619 26.6069 51.5968 26 50.0691 26H47.163C46.6538 26 46.1654 26.2023 45.8053 26.5624C45.4452 26.9225 45.2429 27.4108 45.2429 27.9201C45.2429 28.4293 45.4452 28.9177 45.8053 29.2778C46.1654 29.6379 46.6538 29.8402 47.163 29.8402H50.0172C50.5264 29.8402 51.0148 30.0425 51.3749 30.4025C51.735 30.7626 51.9373 31.251 51.9373 31.7602V39.4925C51.9373 42.0297 50.933 44.4638 49.1437 46.2627C47.3545 48.0617 44.9259 49.0792 42.3887 49.0929V50.494V49.0929C41.128 49.0997 39.8782 48.8582 38.7108 48.382C37.5434 47.9058 36.4813 47.2044 35.585 46.3177C34.6887 45.4311 33.9758 44.3765 33.487 43.2144C32.9983 42.0522 32.7432 40.8051 32.7364 39.5444V31.7602C32.7364 31.251 32.9387 30.7626 33.2988 30.4025C33.6589 30.0425 34.1473 29.8402 34.6565 29.8402H37.355C37.8642 29.8402 38.3526 29.6379 38.7127 29.2778C39.0728 28.9177 39.2751 28.4293 39.2751 27.9201C39.2751 27.4108 39.0728 26.9225 38.7127 26.5624C38.3526 26.2023 37.8642 26 37.355 26H34.6565C33.1469 26.0272 31.7082 26.6461 30.6503 27.7234C29.5924 28.8007 28.9998 30.2503 29 31.7602V39.4925C28.9944 41.6506 29.5106 43.778 30.5045 45.6936C31.4984 47.6091 32.9407 49.2561 34.7084 50.494C36.423 52.0118 37.8126 53.861 38.7937 55.9301C39.7747 57.9991 40.3268 60.2454 40.4168 62.5335C40.4168 64.3019 40.7651 66.0531 41.4418 67.6869C42.1186 69.3207 43.1105 70.8053 44.361 72.0557C45.6115 73.3062 47.096 74.2982 48.7299 74.9749C50.3637 75.6517 52.1148 76 53.8833 76C55.6517 76 57.4029 75.6517 59.0367 74.9749C60.6705 74.2982 62.1551 73.3062 63.4056 72.0557C64.656 70.8053 65.648 69.3207 66.3247 67.6869C67.0015 66.0531 67.3498 64.3019 67.3498 62.5335V60.3539C68.9959 59.9289 70.4544 58.9698 71.4968 57.6269C72.5392 56.2839 73.1066 54.6331 73.1101 52.9331ZM65.3259 56.7732C64.5664 56.7732 63.824 56.548 63.1925 56.126C62.561 55.7041 62.0687 55.1043 61.7781 54.4026C61.4874 53.7009 61.4114 52.9288 61.5596 52.1839C61.7077 51.439 62.0735 50.7547 62.6105 50.2177C63.1476 49.6806 63.8318 49.3149 64.5768 49.1667C65.3217 49.0185 66.0938 49.0946 66.7955 49.3852C67.4972 49.6759 68.097 50.1681 68.5189 50.7996C68.9409 51.4311 69.1661 52.1735 69.1661 52.9331C69.1661 53.4374 69.0668 53.9367 68.8738 54.4026C68.6808 54.8685 68.3979 55.2919 68.0414 55.6485C67.6848 56.0051 67.2614 56.2879 66.7955 56.4809C66.3296 56.6739 65.8302 56.7732 65.3259 56.7732Z" fill="white"/>
</svg>
